<?xml version="1.0" encoding="UTF-8" standalone="no"?>
<svg
   version="1.1"
   viewBox="0 0 31.933693 32.009163"
   id="svg334"
   width="31.933693"
   height="32.009163"
   xml:space="preserve"
   xmlns="http://www.w3.org/2000/svg"
   xmlns:svg="http://www.w3.org/2000/svg"><defs
     id="defs338" /><title
     id="title324">IRC logo</title><path
     style="fill:none;stroke:#000000;stroke-width:1.074;stroke-dasharray:none"
     d="m 27.310407,29.54155 c 0,0 -0.35044,1.07703 -1.82255,0.359306 -0.92858,-0.45246 -6.07272,-3.001609 -9.748575,-4.824457 H 8.8533222 c -4.429365,0 -8.02035103,-3.590692 -8.02035103,-8.020356 V 9.6253625 c 0,-4.4293681 3.59098603,-8.0203563 8.02035103,-8.0203563 H 22.993417 c 4.42936,0 8.02036,3.5909882 8.02036,8.0203563 v 7.4306805 c 0,3.258297 -1.94321,6.063248 -4.73397,7.318305 z"
     id="path620" /><path
     d="m 18.894617,16.559403 -0.87765,3.777002 h -2.613422 l 0.877072,-3.777002 h -2.0494 l -0.853864,3.777002 H 10.810342 L 11.64191,16.559403 H 8.9808932 V 14.492537 H 12.112526 L 12.609062,12.47689 H 9.7886582 v -2.085846 h 3.2693308 l 0.877665,-3.7956822 h 2.612803 l -0.876758,3.7956822 h 2.095488 l 0.87736,-3.7956822 h 2.56762 l -0.87706,3.7956822 h 2.6827 v 2.085846 h -3.15452 l -0.49624,2.015647 h 2.8891 v 2.066866 z m -2.11898,-2.066866 0.49652,-2.015647 h -2.071979 l -0.496831,2.015647 z"
     style="opacity:0.9;fill:#000000;stroke-width:0.301292"
     id="path622" /></svg>
