<?xml version="1.0" encoding="UTF-8" standalone="no"?>
<svg
   version="1.1"
   viewBox="0 0 31.933697 32.009163"
   id="svg334"
   width="31.933697"
   height="32.009163"
   xml:space="preserve"
   xmlns="http://www.w3.org/2000/svg"
   xmlns:svg="http://www.w3.org/2000/svg"><defs
     id="defs338" /><title
     id="title324">Jabber logo</title><g
     style="fill:#000000"
     id="g495"
     transform="matrix(1.3240641,0,0,1.3240641,-0.32920441,0.12153848)"><path
       d="m 9.597,11.737 c 0,-0.35 -0.065,-0.732 -0.268,-1.025 -0.408,-0.588 -1.283,-0.775 -1.892,-0.405 -0.308,0.188 -0.48,0.515 -0.576,0.851 -0.191,0.668 -0.104,1.43 0.03,2.1 0.043,0.214 0.088,0.428 0.148,0.639 0.021,0.076 0.031,0.186 0.08,0.25 0.087,0.11 0.297,0.141 0.426,0.12 0.387,-0.065 0.291,-0.703 0.278,-0.974 -0.03,-0.634 -0.218,-1.25 -0.036,-1.881 0.076,-0.268 0.225,-0.568 0.494,-0.684 0.244,-0.105 0.49,0.023 0.586,0.261 0.156,0.385 0.117,0.83 0.215,1.23 0.033,0.137 0.07,0.272 0.131,0.399 0.018,0.037 0.043,0.113 0.094,0.108 0.126,-0.011 0.304,-0.22 0.398,-0.298 0.304,-0.25 0.616,-0.52 0.965,-0.705 0.165,-0.088 0.435,-0.23 0.603,-0.08 a 0.612,0.612 0 0 1 0.108,0.13 c 0.198,0.31 0.002,0.55 -0.127,0.845 -0.166,0.38 -0.336,0.758 -0.577,1.098 -0.207,0.293 -0.49,0.549 -0.655,0.869 -0.107,0.205 -0.167,0.43 -0.123,0.663 0.036,0.188 0.181,0.301 0.373,0.257 0.143,-0.033 0.24,-0.156 0.322,-0.269 0.146,-0.202 0.281,-0.412 0.426,-0.615 0.28,-0.393 0.61,-0.76 0.846,-1.183 a 3.41,3.41 0 0 0 0.42,-1.664 c 0,-0.474 -0.171,-1.198 -0.723,-1.298 a 0.974,0.974 0 0 0 -0.326,0.01 1.432,1.432 0 0 0 -0.374,0.12 2.715,2.715 0 0 0 -0.818,0.637 c -0.146,0.16 -0.276,0.363 -0.449,0.495 M 9.078,0.016 C 8.643,0.074 8.2,0.068 7.763,0.136 6.925,0.265 6.123,0.525 5.338,0.839 5.052,0.953 4.77,1.08 4.493,1.215 4.39,1.265 4.233,1.305 4.15,1.385 4.107,1.426 4.111,1.524 4.106,1.58 4.092,1.736 4.072,1.893 4.056,2.05 3.998,2.655 3.956,3.279 4.043,3.884 4.071,4.079 4.133,4.434 4.373,4.471 4.742,4.529 5.029,4.074 5.21,3.823 5.634,3.237 6.115,2.691 6.81,2.429 7.627,2.121 8.563,2.048 9.428,1.989 c 2.426,-0.167 5.078,0.277 6.865,2.064 0.254,0.254 0.495,0.524 0.7,0.82 0.8,1.159 1.223,2.477 1.427,3.86 0.096,0.65 0.161,1.308 0.013,1.955 -0.257,1.122 -0.932,2.1 -1.706,2.931 -0.53,0.57 -1.128,1.084 -1.749,1.552 -0.347,0.261 -0.736,0.483 -1.062,0.768 -0.375,0.329 -0.688,0.74 -0.925,1.179 -0.639,1.181 -0.81,2.602 -0.622,3.92 0.038,0.27 0.073,0.542 0.134,0.809 0.018,0.08 0.022,0.217 0.073,0.282 0.097,0.122 0.36,0.189 0.508,0.196 0.154,0.007 0.256,-0.11 0.294,-0.249 0.064,-0.236 0.026,-0.498 -0.012,-0.736 -0.076,-0.487 -0.147,-0.977 -0.125,-1.471 a 3.71,3.71 0 0 1 1.026,-2.425 c 0.643,-0.673 1.512,-1.061 2.243,-1.625 1.474,-1.136 2.794,-2.668 3.301,-4.492 A 5.194,5.194 0 0 0 19.97,9.312 C 19.865,8.463 19.555,7.615 19.262,6.815 18.37,4.378 16.84,2.06 14.411,0.945 13.447,0.502 12.438,0.3 11.395,0.155 10.905,0.087 10.415,0.045 9.923,0.023 9.649,0.011 9.351,-0.019 9.078,0.017 M 5.277,15.796 c -0.473,0.068 -0.61,0.447 -0.523,0.876 0.112,0.548 0.543,0.965 0.97,1.295 a 6.03,6.03 0 0 0 3.884,1.238 c 0.538,-0.023 1.124,-0.112 1.617,-0.34 0.265,-0.122 0.542,-0.563 0.181,-0.751 A 0.59,0.59 0 0 0 11.237,18.063 C 11.08,18.037 10.904,18.104 10.755,18.147 10.492,18.222 10.229,18.3 9.958,18.343 9.15,18.473 8.275,18.288 7.606,17.809 7.064,17.422 6.626,16.911 6.213,16.394 5.96,16.078 5.731,15.731 5.277,15.796 m -0.615,2.678 c -0.12,0.016 -0.259,0.011 -0.362,0.087 -0.215,0.158 0.022,0.476 0.135,0.62 0.328,0.417 0.76,0.763 1.192,1.068 a 7.832,7.832 0 0 0 4.03,1.442 c 0.421,0.03 0.85,0 1.267,-0.07 0.152,-0.026 0.342,-0.037 0.482,-0.103 0.399,-0.186 0.284,-0.939 -0.072,-1.106 -0.155,-0.073 -0.404,0.023 -0.567,0.046 -0.385,0.054 -0.771,0.06 -1.158,0.05 C 8.594,20.483 7.513,20.17 6.629,19.677 A 5.589,5.589 0 0 1 5.663,18.984 C 5.482,18.824 5.295,18.564 5.06,18.482 4.95,18.445 4.776,18.459 4.662,18.474 M 4.903,20.73 A 0.638,0.638 0 0 0 4.49,20.966 c -0.078,0.088 -0.152,0.167 -0.197,0.278 -0.246,0.609 0.41,1.183 0.864,1.47 0.504,0.32 1.055,0.558 1.616,0.758 1.266,0.45 2.752,0.739 4.066,0.336 0.391,-0.12 0.778,-0.338 1.062,-0.634 0.16,-0.167 0.27,-0.419 -0.024,-0.526 -0.174,-0.063 -0.385,0.098 -0.543,0.162 a 4.57,4.57 0 0 1 -1.158,0.312 C 9.649,23.186 9.175,23.07 8.668,22.943 A 11.982,11.982 0 0 1 7.377,22.57 4.457,4.457 0 0 1 6.351,22.057 C 6.257,21.991 6.145,21.932 6.069,21.846 5.819,21.564 5.63,21.234 5.362,20.966 5.246,20.85 5.081,20.71 4.903,20.73"
       id="path486" /></g></svg>
